<svg width="35" height="35" viewBox="0 0 35 35" fill="none" xmlns="http://www.w3.org/2000/svg">
<path fill-rule="evenodd" clip-rule="evenodd" d="M10.2084 2.55208C10.8125 2.55208 11.3022 3.04178 11.3022 3.64583V4.75813C12.2676 4.73957 13.3313 4.73957 14.5011 4.73958H20.499C21.6689 4.73957 22.7326 4.73957 23.698 4.75813V3.64583C23.698 3.04178 24.1877 2.55208 24.7917 2.55208C25.3958 2.55208 25.8855 3.04178 25.8855 3.64583V4.85201C26.2645 4.88091 26.6236 4.91724 26.9632 4.9629C28.673 5.19278 30.0569 5.67712 31.1483 6.76848C32.2396 7.85985 32.7239 9.24372 32.9539 10.9535C33.0272 11.4999 33.0765 12.0963 33.1096 12.7459C33.1534 12.864 33.1772 12.9917 33.1772 13.125C33.1772 13.2261 33.1635 13.324 33.1378 13.4169C33.1772 14.5864 33.1772 15.9145 33.1772 17.4178V20.4989C33.1772 23.179 33.1772 25.3018 32.9539 26.9631C32.7239 28.6729 32.2396 30.0568 31.1483 31.1483C30.0569 32.2395 28.673 32.7238 26.9632 32.9538C25.3019 33.1771 23.1791 33.1771 20.499 33.1771H14.5012C11.8211 33.1771 9.69828 33.1771 8.03693 32.9538C6.32715 32.7238 4.94326 32.2395 3.85189 31.1483C2.76053 30.0568 2.27619 28.6729 2.04633 26.9631C1.82295 25.3018 1.82297 23.179 1.823 20.4989V17.4178C1.82298 15.9144 1.82297 14.5864 1.86239 13.4169C1.83672 13.324 1.823 13.2261 1.823 13.125C1.823 12.9917 1.84683 12.864 1.89048 12.7459C1.92355 12.0963 1.97286 11.4999 2.04633 10.9535C2.27619 9.24373 2.76053 7.85985 3.85189 6.76848C4.94326 5.67712 6.32715 5.19278 8.03693 4.9629C8.3766 4.91724 8.73559 4.88091 9.11467 4.85201V3.64583C9.11467 3.04178 9.60436 2.55208 10.2084 2.55208ZM4.02959 14.2188C4.01097 15.1706 4.0105 16.2546 4.0105 17.5V20.4167C4.0105 23.1974 4.01282 25.173 4.21432 26.6718C4.41157 28.1388 4.7815 28.9842 5.39869 29.6014C6.01587 30.2186 6.86119 30.5885 8.3284 30.7857C9.82708 30.9873 11.8026 30.9896 14.5834 30.9896H20.4167C23.1975 30.9896 25.1731 30.9873 26.6718 30.7857C28.1389 30.5885 28.9843 30.2186 29.6015 29.6014C30.2186 28.9842 30.5886 28.1388 30.7858 26.6718C30.9873 25.173 30.9897 23.1974 30.9897 20.4167V17.5C30.9897 16.2546 30.9892 15.1706 30.9706 14.2188H4.02959ZM30.8705 12.0313H4.12962C4.15298 11.7551 4.1809 11.4935 4.21432 11.245C4.41157 9.77778 4.7815 8.93245 5.39869 8.31527C6.01587 7.69809 6.86119 7.32816 8.3284 7.1309C9.82708 6.9294 11.8026 6.92708 14.5834 6.92708H20.4167C23.1975 6.92708 25.1731 6.9294 26.6718 7.1309C28.1389 7.32816 28.9843 7.69809 29.6015 8.31527C30.2186 8.93245 30.5886 9.77778 30.7858 11.245C30.8192 11.4935 30.8472 11.7551 30.8705 12.0313ZM23.3334 19.3229C23.9375 19.3229 24.4272 19.8126 24.4272 20.4167V22.2396H26.2501C26.8541 22.2396 27.3438 22.7293 27.3438 23.3333C27.3438 23.9374 26.8541 24.4271 26.2501 24.4271H24.4272V26.25C24.4272 26.854 23.9375 27.3438 23.3334 27.3438C22.7294 27.3438 22.2397 26.854 22.2397 26.25V24.4271H20.4167C19.8127 24.4271 19.323 23.9374 19.323 23.3333C19.323 22.7293 19.8127 22.2396 20.4167 22.2396H22.2397V20.4167C22.2397 19.8126 22.7294 19.3229 23.3334 19.3229Z" fill="#F6CA57"/>
</svg>
