<svg width="35" height="35" viewBox="0 0 35 35" fill="none" xmlns="http://www.w3.org/2000/svg">
<path d="M17.5 10.5729C18.104 10.5729 18.5938 11.0626 18.5938 11.6667V18.9583C18.5938 19.5624 18.104 20.0521 17.5 20.0521C16.896 20.0521 16.4062 19.5624 16.4062 18.9583V11.6667C16.4062 11.0626 16.896 10.5729 17.5 10.5729Z" fill="#D94747"/>
<path d="M17.5001 24.7917C18.3055 24.7917 18.9584 24.1388 18.9584 23.3333C18.9584 22.5279 18.3055 21.875 17.5001 21.875C16.6946 21.875 16.0417 22.5279 16.0417 23.3333C16.0417 24.1388 16.6946 24.7917 17.5001 24.7917Z" fill="#D94747"/>
<path fill-rule="evenodd" clip-rule="evenodd" d="M12.0961 6.52813C13.6593 4.54261 15.3152 3.28125 17.5001 3.28125C19.6848 3.28125 21.3407 4.54261 22.9041 6.52813C24.4415 8.48085 26.0706 11.3695 28.1551 15.0653L28.7902 16.1914C30.5134 19.2465 31.8743 21.6596 32.5892 23.5964C33.3198 25.5757 33.4933 27.3728 32.3882 28.958C31.3157 30.4964 29.5264 31.1258 27.2696 31.4229C25.0216 31.7188 21.9983 31.7188 18.1196 31.7188H16.8806C13.0019 31.7188 9.97857 31.7188 7.73044 31.4229C5.47366 31.1258 3.68437 30.4964 2.61194 28.958C1.5068 27.3728 1.68034 25.5757 2.41091 23.5964C3.12579 21.6596 4.48676 19.2466 6.20993 16.1914L6.84493 15.0656C8.92946 11.3696 10.5587 8.48089 12.0961 6.52813ZM13.8148 7.8813C12.3944 9.68549 10.8458 12.4248 8.69897 16.2311L8.16863 17.1714C6.38039 20.342 5.10962 22.6021 4.46308 24.3539C3.82485 26.083 3.91334 26.9997 4.40641 27.707C4.93219 28.4613 5.91906 28.978 8.01594 29.254C10.1043 29.5289 12.983 29.5312 16.9697 29.5312H18.0303C22.0171 29.5312 24.8959 29.5289 26.9842 29.254C29.081 28.978 30.0679 28.4613 30.5937 27.707C31.0868 26.9997 31.1753 26.083 30.537 24.3539C29.8905 22.6021 28.6197 20.342 26.8315 17.1714L26.3011 16.2311C24.1543 12.4248 22.6057 9.68549 21.1853 7.88129C19.778 6.09387 18.6851 5.46875 17.5001 5.46875C16.315 5.46875 15.222 6.09386 13.8148 7.8813Z" fill="#D94747"/>
</svg>
