<svg width="184" height="184" viewBox="0 0 184 184" fill="none" xmlns="http://www.w3.org/2000/svg">
<g clip-path="url(#clip0_144_410)">
<g filter="url(#filter0_d_144_410)">
<path d="M92 12.5C113.35 12.5 133.825 20.9812 148.922 36.0779C164.019 51.1746 172.5 71.6501 172.5 93C172.5 114.35 164.019 134.825 148.922 149.922C133.825 165.019 113.35 173.5 92 173.5C70.6501 173.5 50.1746 165.019 35.0779 149.922C19.9812 134.825 11.5 114.35 11.5 93C11.5 71.6501 19.9812 51.1746 35.0779 36.0779C50.1746 20.9812 70.6501 12.5 92 12.5ZM81.972 108.881L64.0895 90.9875C63.4484 90.3464 62.6873 89.8379 61.8497 89.4909C61.0121 89.144 60.1144 88.9654 59.2077 88.9654C58.3011 88.9654 57.4034 89.144 56.5658 89.4909C55.7282 89.8379 54.9671 90.3464 54.326 90.9875C53.0313 92.2822 52.3039 94.0382 52.3039 95.8693C52.3039 97.7003 53.0313 99.4563 54.326 100.751L77.096 123.521C77.7352 124.165 78.4957 124.677 79.3336 125.026C80.1714 125.375 81.0701 125.554 81.9777 125.554C82.8854 125.554 83.7841 125.375 84.6219 125.026C85.4598 124.677 86.2203 124.165 86.8595 123.521L134.009 76.3595C134.659 75.7211 135.176 74.9603 135.53 74.1212C135.884 73.282 136.069 72.3811 136.073 71.4702C136.077 70.5594 135.901 69.6568 135.555 68.8143C135.208 67.9719 134.699 67.2064 134.055 66.562C133.411 65.9175 132.646 65.4069 131.804 65.0596C130.962 64.7122 130.06 64.535 129.149 64.5382C128.238 64.5413 127.337 64.7248 126.498 65.078C125.658 65.4312 124.897 65.9471 124.258 66.596L81.972 108.881Z" fill="#51E5FF"/>
</g>
</g>
<defs>
<filter id="filter0_d_144_410" x="-10.5" y="-9.5" width="205" height="205" filterUnits="userSpaceOnUse" color-interpolation-filters="sRGB">
<feFlood flood-opacity="0" result="BackgroundImageFix"/>
<feColorMatrix in="SourceAlpha" type="matrix" values="0 0 0 0 0 0 0 0 0 0 0 0 0 0 0 0 0 0 127 0" result="hardAlpha"/>
<feOffset/>
<feGaussianBlur stdDeviation="11"/>
<feComposite in2="hardAlpha" operator="out"/>
<feColorMatrix type="matrix" values="0 0 0 0 0.6175 0 0 0 0 0.86775 0 0 0 0 0.975 0 0 0 0.22 0"/>
<feBlend mode="normal" in2="BackgroundImageFix" result="effect1_dropShadow_144_410"/>
<feBlend mode="normal" in="SourceGraphic" in2="effect1_dropShadow_144_410" result="shape"/>
</filter>
<clipPath id="clip0_144_410">
<rect width="184" height="184" fill="white"/>
</clipPath>
</defs>
</svg>
