<svg width="40" height="41" viewBox="0 0 40 41" fill="none" xmlns="http://www.w3.org/2000/svg">
<path d="M15.7167 21.1H27.1999C27.6415 21.1 27.9999 20.7416 27.9999 20.3C27.9999 19.8584 27.6415 19.5 27.1999 19.5H15.6171L18.8351 16.358C19.1475 16.0456 19.1475 15.5772 18.8351 15.2648C18.5227 14.9524 18.0159 14.9712 17.7039 15.2836L13.1699 19.8276C13.0199 19.9776 12.9355 20.186 12.9355 20.398C12.9355 20.61 13.0199 20.816 13.1699 20.966L17.7043 25.5008C17.8607 25.6572 18.0651 25.7356 18.2699 25.7356C18.4747 25.7356 18.6795 25.658 18.8359 25.5016C19.1483 25.1892 19.1483 24.6068 18.8359 24.2944L15.7167 21.1Z" fill="#9DDDF9"/>
<path d="M33.7784 20.4024C33.7784 13.0232 27.7748 7.01959 20.3956 7.01959C13.0161 7.01959 7.01245 13.0232 7.01245 20.4024C7.01245 27.782 13.0161 33.7856 20.3956 33.7856C27.7752 33.7856 33.7784 27.782 33.7784 20.4024ZM8.61245 20.4024C8.61245 13.9056 13.8985 8.61959 20.3956 8.61959C26.8928 8.61959 32.1784 13.9056 32.1784 20.4024C32.1784 26.8996 26.8928 32.1856 20.3956 32.1856C13.8985 32.1856 8.61245 26.8996 8.61245 20.4024Z" fill="#9DDDF9"/>
</svg>
