<svg width="40" height="41" viewBox="0 0 40 41" fill="none" xmlns="http://www.w3.org/2000/svg">
<path d="M24.2833 19.9H12.8001C12.3585 19.9 12.0001 20.2584 12.0001 20.7C12.0001 21.1416 12.3585 21.5 12.8001 21.5H24.3829L21.1649 24.642C20.8525 24.9544 20.8525 25.4228 21.1649 25.7352C21.4773 26.0476 21.9841 26.0288 22.2961 25.7164L26.8301 21.1724C26.9801 21.0224 27.0645 20.814 27.0645 20.602C27.0645 20.39 26.9801 20.184 26.8301 20.034L22.2957 15.4992C22.1393 15.3428 21.9349 15.2644 21.7301 15.2644C21.5253 15.2644 21.3205 15.342 21.1641 15.4984C20.8517 15.8108 20.8517 16.3932 21.1641 16.7056L24.2833 19.9Z" fill="#9DDDF9"/>
<path d="M6.22155 20.5976C6.22155 27.9768 12.2252 33.9804 19.6044 33.9804C26.9839 33.9804 32.9875 27.9768 32.9875 20.5976C32.9875 13.218 26.9839 7.21441 19.6044 7.21441C12.2248 7.21441 6.22155 13.218 6.22155 20.5976ZM31.3875 20.5976C31.3875 27.0944 26.1015 32.3804 19.6044 32.3804C13.1072 32.3804 7.82155 27.0944 7.82155 20.5976C7.82155 14.1004 13.1072 8.81441 19.6044 8.81441C26.1015 8.81441 31.3875 14.1004 31.3875 20.5976Z" fill="#9DDDF9"/>
</svg>
