<svg width="35" height="35" viewBox="0 0 35 35" fill="none" xmlns="http://www.w3.org/2000/svg">
<path fill-rule="evenodd" clip-rule="evenodd" d="M17.5001 5.83333C11.0568 5.83333 5.83341 11.0567 5.83341 17.5C5.83341 23.9434 11.0568 29.1667 17.5001 29.1667C23.9434 29.1667 29.1667 23.9434 29.1667 17.5C29.1667 11.0567 23.9434 5.83333 17.5001 5.83333ZM2.91675 17.5C2.91675 9.44584 9.44592 2.91667 17.5001 2.91667C25.5542 2.91667 32.0834 9.44584 32.0834 17.5C32.0834 25.5541 25.5542 32.0833 17.5001 32.0833C9.44592 32.0833 2.91675 25.5541 2.91675 17.5ZM17.2498 9.85448C18.0553 9.85448 18.7082 10.5074 18.7082 11.3128V18.5566L23.8516 20.5119C24.6045 20.798 24.9828 21.6404 24.6965 22.3931C24.4104 23.1461 23.5681 23.5244 22.8153 23.2381L16.7317 20.9256C16.1657 20.7104 15.7915 20.1679 15.7915 19.5624V11.3128C15.7915 10.5074 16.4444 9.85448 17.2498 9.85448Z" fill="#4779D9"/>
</svg>
